<?xml version="1.0" standalone="no"?>
<!DOCTYPE svg PUBLIC "-//W3C//DTD SVG 20010904//EN"
 "http://www.w3.org/TR/2001/REC-SVG-20010904/DTD/svg10.dtd">
<svg version="1.0" xmlns="http://www.w3.org/2000/svg"
 width="420.000000pt" height="420.000000pt" viewBox="0 0 420.000000 420.000000"
 preserveAspectRatio="xMidYMid meet">
<metadata>
Created by potrace 1.14, written by Peter Selinger 2001-2017
</metadata>
<g transform="translate(0.000000,420.000000) scale(0.100000,-0.100000)"
fill="#000000" stroke="none">
<path d="M2060 3772 c-19 -1 -80 -11 -135 -22 -55 -10 -133 -24 -174 -30 -114
-17 -224 -57 -310 -115 -75 -50 -96 -67 -185 -148 -22 -20 -61 -45 -86 -54
-86 -32 -154 -85 -207 -159 -22 -31 -61 -121 -69 -159 -11 -54 -16 -83 -20
-115 -5 -47 -4 -285 1 -335 6 -53 14 -114 20 -144 2 -12 7 -42 10 -65 3 -22
13 -77 23 -122 l18 -80 -29 -28 c-26 -27 -44 -59 -52 -96 -2 -8 -4 -15 -5 -15
-1 0 -3 -20 -4 -45 -5 -90 34 -204 109 -320 91 -141 140 -170 255 -146 32 6
39 3 85 -40 l50 -46 -45 6 c-25 3 -65 12 -90 20 -75 22 -156 -3 -191 -60 -11
-19 -23 -33 -27 -32 -16 5 -122 -13 -148 -24 -47 -21 -84 -49 -84 -64 0 -15
-56 -54 -78 -54 -8 0 -28 -7 -46 -15 -66 -31 -80 -90 -81 -325 0 -141 2 -159
22 -196 25 -47 56 -62 121 -59 40 3 44 0 62 -35 12 -23 30 -42 47 -47 43 -15
123 -8 174 14 46 20 47 20 63 2 14 -17 36 -24 60 -20 13 3 36 -20 30 -30 -2
-5 2 -22 11 -39 14 -26 21 -30 58 -30 23 1 71 7 107 15 36 7 110 14 165 14
168 -1 160 -2 204 39 23 21 41 44 41 50 0 7 4 12 8 12 8 0 45 71 48 92 1 4 2
9 3 11 8 9 15 63 15 122 1 46 -8 104 -26 170 -41 153 -56 215 -51 215 2 0 22
-9 43 -20 22 -11 40 -18 40 -14 0 4 6 2 13 -4 17 -14 157 -72 157 -65 0 3 7 0
15 -7 8 -7 15 -9 15 -5 0 4 6 3 13 -2 6 -6 26 -14 42 -18 44 -12 45 -12 50
-15 3 -1 8 -3 13 -4 4 -2 27 -8 52 -15 25 -7 53 -15 62 -17 10 -2 28 -6 41 -9
106 -25 268 -23 362 6 87 26 110 38 156 81 89 83 279 374 293 451 3 12 5 22 6
22 2 0 4 9 14 60 10 46 8 136 -4 175 -5 19 -10 35 -10 36 0 0 19 6 43 13 65
20 106 65 124 136 2 11 6 68 8 127 2 59 8 115 13 125 6 10 7 34 3 53 -6 30
-15 39 -69 66 -40 21 -85 34 -127 39 -64 7 -65 7 -67 38 -2 49 -3 55 -22 158
-16 86 -16 101 -3 151 13 50 14 141 2 176 -3 8 7 12 31 12 50 0 100 24 107 51
8 29 2 188 -8 212 -8 18 -24 23 -26 7 -1 -5 -3 -14 -4 -20 -1 -5 -3 -19 -4
-30 -2 -39 -17 -19 -40 53 -28 89 -90 215 -133 270 -48 63 -141 157 -155 157
-7 0 -13 4 -13 8 0 7 -68 43 -90 48 -3 0 -18 6 -33 12 -15 7 -40 14 -55 17
-15 3 -38 7 -52 10 -14 3 -62 5 -107 4 -156 -2 -198 -2 -263 2 -36 3 -81 3
-100 1z m1000 -1370 c0 -5 14 -6 32 -4 22 3 35 0 45 -14 7 -10 13 -12 13 -6 0
31 64 -11 72 -48 2 -8 8 -18 13 -22 6 -5 5 -8 -3 -8 -9 0 -10 -5 -4 -17 5 -10
8 -26 7 -35 -2 -10 1 -21 6 -24 6 -3 2 -12 -8 -21 -10 -8 -13 -12 -7 -9 16 8
21 -10 18 -69 -4 -84 -27 -161 -45 -149 -5 3 -6 -1 -3 -9 5 -13 -36 -41 -63
-42 -6 0 -15 -4 -19 -8 -11 -11 -26 -9 -19 3 3 6 1 10 -5 10 -7 0 -10 6 -7 14
3 7 1 18 -5 24 -6 6 -12 43 -14 84 -1 40 -4 73 -5 73 -2 0 -4 25 -13 178 -4
69 -3 107 4 107 5 0 10 -4 10 -8z"/>
<path d="M3170 2219 c0 -5 5 -7 10 -4 6 3 10 8 10 11 0 2 -4 4 -10 4 -5 0 -10
-5 -10 -11z"/>
<path d="M3215 2140 c-3 -5 -1 -10 4 -10 6 0 11 5 11 10 0 6 -2 10 -4 10 -3 0
-8 -4 -11 -10z"/>
<path d="M3170 2099 c0 -5 5 -7 10 -4 6 3 10 8 10 11 0 2 -4 4 -10 4 -5 0 -10
-5 -10 -11z"/>
<path d="M3210 2081 c0 -6 4 -13 10 -16 6 -3 7 1 4 9 -7 18 -14 21 -14 7z"/>
<path d="M3090 2059 c0 -5 5 -7 10 -4 6 3 10 8 10 11 0 2 -4 4 -10 4 -5 0 -10
-5 -10 -11z"/>
<path d="M3153 1965 c0 -8 4 -12 9 -9 5 3 6 10 3 15 -9 13 -12 11 -12 -6z"/>
<path d="M3120 1960 c-9 -6 -10 -10 -3 -10 6 0 15 5 18 10 8 12 4 12 -15 0z"/>
</g>
</svg>
