<?xml version="1.0" standalone="no"?>
<!DOCTYPE svg PUBLIC "-//W3C//DTD SVG 20010904//EN"
 "http://www.w3.org/TR/2001/REC-SVG-20010904/DTD/svg10.dtd">
<svg version="1.0" xmlns="http://www.w3.org/2000/svg"
 width="389.000000pt" height="389.000000pt" viewBox="0 0 389.000000 389.000000"
 preserveAspectRatio="xMidYMid meet">
<metadata>
Created by potrace 1.14, written by Peter Selinger 2001-2017
</metadata>
<g transform="translate(0.000000,389.000000) scale(0.100000,-0.100000)"
fill="#000000" stroke="none">
<path d="M1281 3610 c-8 -4 -23 -7 -33 -5 -10 2 -18 -1 -18 -6 0 -6 -4 -8 -9
-4 -13 8 -62 -15 -87 -41 -16 -16 -25 -19 -33 -11 -8 8 -9 4 -6 -12 2 -12 0
-19 -5 -16 -11 7 -42 -24 -35 -36 4 -5 2 -9 -4 -9 -6 0 -7 -8 -4 -17 5 -12 2
-15 -9 -10 -13 4 -16 1 -12 -19 3 -16 -1 -27 -11 -30 -14 -6 -14 -8 1 -19 15
-11 15 -13 -7 -28 -15 -11 -18 -17 -9 -17 12 0 13 -2 1 -9 -9 -6 -10 -10 -2
-16 9 -5 9 -11 -1 -23 -11 -13 -11 -15 2 -7 11 6 12 5 4 -4 -6 -6 -20 -13 -32
-16 -33 -6 -75 -33 -97 -63 -14 -19 -20 -43 -20 -82 0 -66 21 -100 79 -126
l38 -18 -33 -14 c-19 -8 -43 -18 -54 -23 -132 -52 -285 -142 -358 -211 -16
-16 -30 -28 -32 -28 -8 0 -54 -50 -47 -50 4 0 0 -6 -8 -13 -24 -19 -60 -74
-53 -81 3 -3 1 -6 -5 -6 -10 0 -22 -24 -22 -43 1 -4 -6 -15 -15 -23 -13 -14
-20 -35 -16 -56 0 -5 -3 -8 -7 -8 -4 0 -9 -12 -10 -26 -1 -15 -6 -32 -11 -38
-4 -6 -9 -18 -9 -26 0 -8 -3 -33 -7 -55 -11 -70 -13 -268 -4 -292 6 -18 5 -28
-5 -38 -7 -8 -16 -11 -20 -8 -3 3 -18 -8 -33 -25 -27 -31 -41 -102 -20 -102 5
0 6 -8 3 -17 -4 -10 -4 -14 0 -10 4 4 18 -6 32 -21 16 -16 23 -20 19 -9 -3 9
-2 17 3 17 6 0 10 -6 10 -12 0 -9 4 -8 10 2 6 10 10 11 10 3 0 -18 40 -10 55
10 7 9 16 13 20 9 5 -4 5 -2 1 5 -4 7 -12 11 -19 10 -7 -2 -2 1 11 7 26 12 30
28 5 20 -14 -5 -15 -4 -4 4 8 6 10 15 5 23 -6 11 -5 12 7 2 12 -10 15 -8 15 8
0 11 -5 18 -11 15 -7 -2 -12 2 -12 10 0 7 4 11 9 8 4 -3 8 0 8 5 0 11 -14 15
-39 11 -13 -1 -13 1 -2 14 8 9 10 16 7 16 -4 0 -1 6 6 14 7 8 15 13 18 11 5
-3 25 15 27 25 7 24 16 39 23 35 7 -5 23 31 21 47 -1 5 3 7 8 5 13 -3 90 80
82 89 -3 4 -1 4 5 1 6 -4 27 9 47 28 20 19 40 35 45 35 5 0 15 7 22 15 16 19
129 75 152 75 9 0 19 6 21 13 4 9 6 9 6 0 1 -7 8 -10 17 -6 14 5 15 3 6 -14
-6 -11 -8 -23 -5 -27 3 -3 1 -6 -6 -6 -7 0 -10 -4 -6 -9 3 -6 0 -13 -7 -18
-18 -11 -49 -69 -41 -77 3 -3 1 -6 -6 -6 -9 0 -11 -23 -10 -80 2 -44 6 -80 11
-80 4 0 8 -9 8 -20 0 -11 4 -28 9 -38 5 -9 14 -35 21 -57 7 -22 19 -48 27 -57
13 -15 13 -19 -6 -40 -12 -12 -19 -28 -17 -34 3 -7 2 -15 -2 -19 -9 -9 -12
-135 -3 -135 4 0 8 -11 9 -25 3 -48 5 -55 15 -55 6 0 7 -3 4 -7 -4 -3 1 -15
10 -26 10 -11 13 -17 6 -14 -8 5 -8 1 0 -18 7 -14 15 -25 19 -25 4 0 5 -7 2
-15 -4 -9 0 -15 10 -15 9 0 16 -8 16 -20 0 -11 5 -20 10 -20 6 0 10 -6 10 -13
0 -21 60 -67 91 -69 16 -1 29 -6 29 -10 0 -5 8 -4 18 1 27 14 34 11 79 -36 23
-25 46 -42 52 -39 24 15 -5 -31 -47 -74 -119 -123 -146 -284 -74 -440 27 -57
141 -180 167 -180 7 0 15 -4 17 -8 5 -11 101 -55 193 -87 115 -40 293 -41 377
-1 48 23 72 89 45 124 -5 7 -8 13 -6 15 2 1 21 10 41 21 20 10 41 30 47 45 13
31 9 85 -9 106 -7 9 -11 17 -9 18 44 29 63 30 149 7 64 -17 83 -20 191 -24
166 -7 285 33 366 123 18 20 39 43 48 52 8 9 15 19 15 23 0 4 6 14 13 21 24
27 33 40 52 73 11 17 23 32 27 32 4 0 8 9 8 21 0 11 5 17 10 14 6 -3 10 1 10
9 0 9 5 16 11 16 5 0 7 5 4 11 -4 6 1 17 11 24 11 8 15 15 10 15 -5 0 -3 7 4
15 7 8 9 15 6 15 -4 0 0 7 8 16 9 8 14 20 11 25 -4 5 -1 9 4 9 6 0 10 3 10 8
-1 4 0 10 1 15 1 4 4 12 5 17 1 6 4 11 5 13 4 4 11 63 13 110 1 26 5 47 10 47
4 0 3 9 -3 19 -5 11 -10 29 -10 40 0 12 -5 21 -11 21 -5 0 -7 5 -4 10 3 6 1
10 -5 10 -6 0 -8 5 -5 10 4 6 2 25 -4 43 -6 17 -12 49 -13 69 -2 21 -6 38 -9
38 -3 0 -5 25 -6 55 0 31 -3 58 -6 61 -3 3 -2 17 3 30 5 13 6 25 2 28 -4 3 -8
25 -7 50 0 25 -3 46 -8 46 -4 0 -3 8 2 19 6 10 8 21 5 24 -3 3 -8 25 -10 48
-3 24 -8 47 -10 51 -3 5 -2 8 3 7 21 -4 33 2 33 16 0 8 4 15 9 15 8 0 17 24
22 55 0 6 5 18 11 29 8 14 7 17 -3 11 -8 -6 -10 -4 -4 5 13 20 15 153 3 168
-6 6 -8 12 -5 12 3 0 1 15 -4 33 -6 17 -12 41 -14 52 -3 11 -9 21 -15 23 -5 2
-10 10 -10 18 0 8 -4 14 -10 14 -5 0 -10 5 -10 11 0 7 -12 22 -27 35 -15 12
-28 30 -30 38 -4 22 -9 38 -16 59 -15 39 -16 47 -4 47 9 0 8 3 -1 9 -11 6 -10
10 3 15 10 3 15 12 12 21 -4 9 -1 12 9 8 9 -3 14 1 14 12 0 9 5 13 10 10 6 -3
10 -2 10 4 0 5 20 20 45 32 25 12 45 26 45 31 0 4 3 7 8 7 15 -4 92 14 92 20
0 8 157 5 210 -3 19 -3 52 -8 74 -11 21 -3 42 -7 46 -10 5 -3 11 1 13 7 4 9 6
9 6 1 1 -6 9 -9 20 -6 10 3 22 -1 26 -8 5 -7 4 -10 -3 -5 -13 8 -21 -14 -11
-34 4 -8 13 -29 19 -47 7 -18 15 -32 19 -31 23 3 33 -4 27 -19 -5 -15 -4 -15
9 1 13 17 15 18 15 3 0 -9 4 -17 10 -17 5 0 7 8 4 18 -5 13 -4 14 4 3 5 -7 14
-11 20 -7 6 3 13 2 17 -4 9 -15 22 -12 29 6 6 15 4 15 -11 3 -16 -13 -17 -12
-4 4 10 13 17 15 27 6 11 -9 14 -8 14 0 0 7 5 9 12 5 7 -4 8 -3 4 5 -4 6 -12
8 -18 5 -7 -4 -8 -2 -4 4 4 7 15 12 24 12 15 0 15 2 2 10 -14 9 -7 14 13 11 4
-1 3 7 -2 18 -6 10 -7 21 -4 25 3 3 1 6 -5 6 -7 0 -12 5 -12 11 0 5 5 7 12 3
6 -4 3 5 -8 19 -10 15 -24 27 -30 27 -7 0 -14 6 -17 14 -3 8 -20 13 -44 13
-22 0 -44 3 -50 6 -6 4 -14 1 -17 -5 -3 -7 -4 -1 -2 15 2 15 -1 30 -6 33 -4 3
-6 10 -3 15 4 5 2 9 -3 9 -5 0 -15 15 -23 33 -7 17 -15 34 -19 37 -3 3 -16 22
-30 42 -14 21 -28 38 -32 38 -5 0 -8 4 -8 9 0 12 -44 61 -55 61 -4 0 -15 8
-24 18 -15 18 -133 80 -162 86 -8 2 -21 6 -29 9 -14 6 -30 10 -105 23 -72 14
-220 9 -305 -9 -24 -5 -135 -31 -140 -32 -3 -1 -18 -5 -35 -9 -16 -4 -43 -13
-59 -19 -17 -6 -37 -12 -45 -13 -18 -2 -221 -60 -261 -73 -104 -36 -120 -44
-113 -54 8 -13 -28 12 -39 28 -5 6 -8 5 -8 -3 0 -7 -10 -2 -23 12 -13 14 -27
23 -30 19 -4 -3 -7 2 -7 11 0 13 -6 17 -20 13 -11 -3 -18 0 -17 7 1 6 -6 10
-15 10 -10 -1 -15 3 -11 9 4 6 0 8 -10 4 -9 -3 -19 -1 -23 5 -4 7 -3 8 4 4 7
-4 12 -2 12 3 0 6 -6 11 -12 11 -7 0 -28 17 -47 38 -19 20 -31 30 -27 22 4 -8
0 -6 -9 5 -9 11 -20 19 -25 18 -5 -2 -7 4 -3 13 3 9 0 14 -8 12 -8 -2 -13 4
-13 15 1 9 -2 17 -7 17 -5 0 -9 -5 -9 -12 0 -6 -6 -3 -14 7 -8 11 -12 23 -9
28 2 4 1 6 -4 5 -16 -5 -53 23 -53 40 0 15 -2 15 -10 2 -8 -13 -10 -12 -10 3
0 9 -3 16 -7 15 -15 -4 -53 13 -53 24 0 5 -7 7 -16 4 -10 -4 -13 -2 -8 6 5 7
2 9 -8 5 -9 -3 -19 -3 -22 1 -8 7 -41 14 -73 15 -13 1 -23 4 -23 7 0 4 -7 7
-15 7 -8 0 -15 -5 -15 -11 0 -7 -3 -7 -8 1 -5 7 -13 9 -21 3z m-86 -486 c1 -5
7 -20 14 -33 7 -13 9 -21 3 -17 -5 3 -12 -3 -15 -14 -3 -11 -2 -20 2 -20 4 0
7 -10 8 -22 0 -13 -1 -17 -4 -10 -3 6 -9 12 -15 12 -6 0 -8 -7 -4 -15 4 -12
-3 -15 -32 -16 -20 -1 -50 -3 -66 -5 l-29 -3 28 29 c16 17 25 30 21 30 -4 0 0
7 9 16 9 9 15 28 13 43 -4 38 8 50 40 42 15 -4 27 -12 27 -17z m-145 -144 c0
-5 -5 -10 -11 -10 -5 0 -7 5 -4 10 3 6 8 10 11 10 2 0 4 -4 4 -10z m-710
-1215 c0 -12 -19 -12 -23 0 -4 9 -1 12 9 8 7 -3 14 -7 14 -8z"/>
<path d="M1000 3359 c0 -5 5 -7 10 -4 6 3 10 8 10 11 0 2 -4 4 -10 4 -5 0 -10
-5 -10 -11z"/>
</g>
</svg>
